<?xml version="1.0" encoding="UTF-8"?>
<svg version="1.1" xmlns="http://www.w3.org/2000/svg" width="1024" height="1024">
<path d="M0 0 C1.20138107 -0.01149078 2.40276215 -0.02298157 3.64054871 -0.03482056 C4.97910988 -0.042446 6.31767194 -0.0499176 7.65623474 -0.05725098 C9.06063093 -0.06842454 10.46502446 -0.07993781 11.86941528 -0.09176636 C16.49029316 -0.12835841 21.11119848 -0.15355398 25.73216248 -0.1763916 C26.91191843 -0.1823104 26.91191843 -0.1823104 28.11550784 -0.18834877 C35.53598714 -0.22477904 42.95647597 -0.25621942 50.37701511 -0.27745819 C59.86216107 -0.30500794 69.34655717 -0.35571588 78.83139092 -0.43793249 C85.50327133 -0.49380111 92.17494886 -0.52270559 98.8470549 -0.5319314 C102.82994931 -0.53817852 106.81196507 -0.55620452 110.79460335 -0.60331726 C114.54680462 -0.64715195 118.29765198 -0.65742203 122.05006599 -0.64268875 C124.07260761 -0.64317132 126.09504963 -0.67829476 128.11726379 -0.71469116 C136.72821712 -0.63664444 141.28111454 1.06690885 147.35325623 7.1673584 C148.29923172 8.02952469 149.24520721 8.89169098 150.21984863 9.77998352 C151.4422953 11.00004341 151.4422953 11.00004341 152.68943787 12.24475098 C153.14916992 12.70097839 153.60890198 13.15720581 154.08256531 13.6272583 C155.56450311 15.10056258 157.03920373 16.58085496 158.51341248 18.06188965 C159.55400994 19.1011368 160.59490389 20.14008716 161.63607788 21.17875671 C163.79823598 23.33798999 165.95679422 25.50073962 168.11277771 27.6661377 C170.88009671 30.44495042 173.65643549 33.21455186 176.43544865 35.9816637 C178.57766791 38.11667782 180.71512835 40.25640478 182.85114861 42.39761925 C183.87398354 43.42178925 184.89830873 44.44447314 185.92413521 45.46564674 C187.34812532 46.88458316 188.76506477 48.31058492 190.18162537 49.73693848 C190.98942947 50.54633377 191.79723358 51.35572906 192.6295166 52.18965149 C194.35325623 54.1673584 194.35325623 54.1673584 194.35325623 56.1673584 C194.91335388 56.40365967 195.47345154 56.63996094 196.05052185 56.88342285 C200.495184 59.36163301 203.8406135 63.32263559 207.40745544 66.90588379 C208.84003903 68.34161219 210.28537743 69.76353799 211.73216248 71.18493652 C219.38143718 78.82883199 224.43424175 84.66771552 224.49632382 95.79782838 C224.49545734 96.54655475 224.49459086 97.29528112 224.49369812 98.06669617 C224.49666924 98.86822359 224.49964036 99.66975101 224.50270152 100.49556714 C224.51138136 103.184596 224.51289617 105.87358031 224.51438904 108.56262207 C224.51901776 110.4894724 224.5240425 112.41632182 224.5294342 114.34317017 C224.54255605 119.58097351 224.54900289 124.81876404 224.55344486 130.05658126 C224.55637629 133.3298146 224.56048126 136.60304444 224.56494904 139.87627602 C224.57862418 150.11984242 224.58829042 160.36340083 224.59215093 170.60697573 C224.59663009 182.42695198 224.61417141 194.2468125 224.64315152 206.06675357 C224.66477966 215.20575515 224.67485584 224.34472421 224.67619205 233.48375112 C224.67723937 238.94069671 224.68313179 244.39753351 224.70101166 249.85445213 C224.71751155 254.99018531 224.71963847 260.12572816 224.71087265 265.26147842 C224.71010327 267.14278613 224.71443186 269.02410415 224.7243309 270.90538597 C224.73708727 273.48151619 224.73115377 276.05697602 224.7207489 278.63310242 C224.73283351 279.73946156 224.73283351 279.73946156 224.74516225 280.86817139 C224.68638656 287.12656197 223.31857266 293.13858161 219.88059998 298.43688965 C209.57454103 308.43908445 197.84219592 307.74090904 184.35887146 307.66906738 C182.33261236 307.6728546 180.30635585 307.67835796 178.28010559 307.68544006 C172.7987524 307.69935838 167.31771438 307.68825064 161.83637881 307.67172885 C156.08972878 307.65783984 150.34309633 307.66434274 144.59643555 307.66786194 C134.94867395 307.67056079 125.30103699 307.65711556 115.65330505 307.63391113 C104.51059468 307.60729598 93.36809256 307.60555796 82.22536129 307.6172995 C71.49002772 307.62809036 60.75476922 307.6218804 50.0194416 307.60774422 C45.45785299 307.60199655 40.89631954 307.60205749 36.33473015 307.60680962 C30.96086011 307.611593 25.58721721 307.60142123 20.21339035 307.57985497 C18.24501245 307.57430576 16.27661263 307.57380459 14.30823326 307.57880783 C11.61416484 307.5847953 8.92078288 307.57218962 6.22677612 307.55503845 C5.06819183 307.56405352 5.06819183 307.56405352 3.8862018 307.57325071 C-2.47878451 307.49994424 -8.66598076 306.25389251 -13.95143127 302.55407715 C-22.49790031 293.3060323 -22.79775138 284.39104834 -22.78718567 272.3193512 C-22.79164235 270.71378716 -22.79164235 270.71378716 -22.79618907 269.07578748 C-22.804838 265.50091575 -22.80638107 261.92607765 -22.80787659 258.35119629 C-22.81250731 255.78337025 -22.81753231 253.2155449 -22.82292175 250.64772034 C-22.83646139 243.68087154 -22.84252227 236.71402854 -22.84693241 229.74716878 C-22.84970089 225.39381174 -22.8539392 221.04045691 -22.85843658 216.68710136 C-22.87062098 204.62304989 -22.88092359 192.55900016 -22.88431168 180.49494267 C-22.88453124 179.72397354 -22.88475081 178.95300442 -22.88497703 178.1586726 C-22.88519531 177.38592016 -22.88541358 176.61316772 -22.88563848 175.81699854 C-22.88608193 174.25124935 -22.8865285 172.68550016 -22.88697815 171.11975098 C-22.88719958 170.34309471 -22.88742101 169.56643845 -22.88764915 168.76624715 C-22.89159893 156.17601558 -22.90906216 143.58584182 -22.93233767 130.9956326 C-22.9560662 118.05556157 -22.96851412 105.11551955 -22.96967959 92.17542642 C-22.97059523 84.91549839 -22.97632003 77.65564581 -22.99449921 70.3957386 C-23.01153393 63.56916852 -23.01314168 56.7427438 -23.0043602 49.91615868 C-23.00358923 47.41240175 -23.00794037 44.90863716 -23.01781845 42.4048996 C-23.03052314 38.98387883 -23.02466875 35.56336659 -23.01423645 32.14234924 C-23.02229285 31.15459332 -23.03034926 30.1668374 -23.0386498 29.14914948 C-22.97519692 20.23630838 -21.04712095 11.7384123 -14.64674377 5.1673584 C-12.37322199 3.55183212 -10.16895589 2.40467 -7.64674377 1.1673584 C-4.9936428 -0.15919209 -2.97233619 0.02316333 0 0 Z M28.35325623 134.1673584 C26.50365057 138.17483733 26.26106848 140.55277345 26.91575623 144.9173584 C28.66758247 148.87800904 29.39429025 149.48788825 33.35325623 151.1673584 C37.0964773 151.60436026 40.8168347 151.56661356 44.58177185 151.53967285 C46.28257149 151.54514885 46.28257149 151.54514885 48.01773071 151.55073547 C51.76514165 151.55884028 55.5121201 151.54523086 59.25950623 151.53063965 C61.86355082 151.53012104 64.46759581 151.53063878 67.07164001 151.53215027 C72.52900858 151.53303239 77.98625274 151.52197012 83.44358826 151.50354004 C89.74715355 151.48237361 96.05053664 151.47886302 102.35413027 151.485102 C108.42553688 151.49080284 114.49686923 151.48503651 120.56826782 151.47392845 C123.14867902 151.47007733 125.7290957 151.46892787 128.30950928 151.4705143 C131.91469277 151.47088486 135.51959876 151.45826687 139.1247406 151.4420166 C140.1929454 151.44449402 141.26115021 151.44697144 142.36172485 151.44952393 C143.3458284 151.44243912 144.32993195 151.43535431 145.34385681 151.42805481 C146.19555199 151.42600194 147.04724716 151.42394907 147.92475128 151.42183399 C151.41162027 151.05645567 154.2539326 149.95258956 157.10325623 147.9173584 C158.93030101 145.3594957 159.16629896 143.28331274 159.35325623 140.1673584 C158.38929451 136.71316224 157.16410183 134.41603488 154.35325623 132.1673584 C151.45344339 131.20075412 149.60694748 131.03744305 146.59109497 131.0269165 C145.61118591 131.02120636 144.63127686 131.01549622 143.62167358 131.00961304 C142.54784927 131.00849518 141.47402496 131.00737732 140.36766052 131.00622559 C139.23569244 131.00126068 138.10372437 130.99629578 136.93745422 130.99118042 C133.18412167 130.97654792 129.43083139 130.96975499 125.67747498 130.9642334 C123.07296751 130.95848289 120.46846007 130.95272515 117.86395264 130.94696045 C113.09769374 130.9373899 108.33144399 130.93149261 103.56517667 130.9284637 C96.55600903 130.92398468 89.54703658 130.90644297 82.53792828 130.8774631 C76.4622737 130.85321702 70.38669951 130.84551817 64.31099892 130.84378815 C61.72860972 130.84075942 59.14622139 130.83272354 56.56386375 130.81960297 C52.95143707 130.8025589 49.33948605 130.80441904 45.72703552 130.81091309 C44.65928391 130.8016983 43.59153229 130.79248352 42.49142456 130.7829895 C37.08280718 130.8134654 32.9354157 130.935185 28.35325623 134.1673584 Z M27.35325623 190.1673584 C26.20688127 194.29430824 26.08383222 196.45338478 27.60325623 200.4798584 C29.23642747 203.37444089 29.23642747 203.37444089 32.35325623 205.1673584 C34.9830203 205.48089698 34.9830203 205.48089698 37.99531555 205.44824219 C39.17019531 205.45966248 40.34507507 205.47108276 41.55555725 205.48284912 C42.84601959 205.48508484 44.13648193 205.48732056 45.46604919 205.48962402 C46.83767735 205.49888183 48.20930035 205.50893135 49.58091736 205.51971436 C53.30822733 205.54595098 57.03546527 205.55884967 60.76285315 205.56773567 C63.09147072 205.5735984 65.42006863 205.58180819 67.7486763 205.59074402 C75.03423181 205.61808961 82.31974233 205.63742556 89.60534561 205.6451478 C98.01610344 205.65411166 106.42621159 205.68921988 114.83677185 205.74714899 C121.3379318 205.79037297 127.8389089 205.81055576 134.34021103 205.81323004 C138.22335224 205.81532671 142.10588257 205.82715154 145.98887253 205.86286926 C149.64170527 205.89581668 153.29346754 205.90015135 156.94639587 205.88259125 C158.92430904 205.88031504 160.90218654 205.90776288 162.87989807 205.93609619 C168.88309888 206.06545573 168.88309888 206.06545573 174.27118301 203.86872864 C176.2143418 201.64238654 177.26805403 199.6688342 177.76341248 196.7532959 C177.64868591 196.02368652 177.53395935 195.29407715 177.41575623 194.5423584 C177.32423279 193.80759277 177.23270935 193.07282715 177.13841248 192.3157959 C176.0811418 189.4227667 174.73277289 188.11866359 172.35325623 186.1673584 C169.61343842 185.56865495 169.61343842 185.56865495 166.54624939 185.65942383 C165.36013565 185.64814453 164.17402191 185.63686523 162.95196533 185.62524414 C161.00528206 185.63738953 161.00528206 185.63738953 159.01927185 185.64978027 C157.63601952 185.64435897 156.25277297 185.63723626 154.86953735 185.62854004 C151.11534914 185.61030427 147.36160061 185.61737496 143.60740471 185.63005638 C139.67880441 185.64018287 135.75024179 185.63079169 131.82164001 185.62451172 C125.22419983 185.61723426 118.62693875 185.62682549 112.02952576 185.64587402 C104.40177193 185.66764309 96.77444575 185.66059178 89.14670229 185.6385684 C82.59795613 185.6204171 76.04933873 185.61785471 69.50057554 185.62832308 C65.58915923 185.63455955 61.67794393 185.63538959 57.76654053 185.62217712 C54.08919568 185.610623 50.41240223 185.61863553 46.73511696 185.64175415 C44.74160139 185.64956722 42.7480392 185.63768157 40.75454712 185.62524414 C39.56843338 185.63652344 38.38231964 185.64780273 37.16026306 185.65942383 C36.12936302 185.66093193 35.09846298 185.66244003 34.03632355 185.66399384 C30.62541967 186.30390627 29.46157973 187.4578222 27.35325623 190.1673584 Z " fill="#2488FE" transform="translate(94.64674377441406,346.8326416015625)"/>
<path d="M0 0 C1.37369751 0.08290283 1.37369751 0.08290283 2.77514648 0.16748047 C17.959364 1.27511953 31.86377402 5.38597466 42.75 16.5625 C49.6038603 24.74974766 53.08312337 33.39342632 53.875 43.9375 C49.91704914 44.13375099 45.95863065 44.31801982 42 44.5 C40.30810547 44.58411133 40.30810547 44.58411133 38.58203125 44.66992188 C37.50566406 44.71826172 36.42929687 44.76660156 35.3203125 44.81640625 C34.32531738 44.8635376 33.33032227 44.91066895 32.30517578 44.95922852 C29.875 44.9375 29.875 44.9375 27.875 43.9375 C26.98046875 42.08203125 26.98046875 42.08203125 26.0625 39.75 C23.09550616 32.90309114 19.68106459 28.9098511 12.83984375 25.69921875 C5.4514493 22.83493064 -4.14505186 22.52023167 -11.625 25.1875 C-18.05131625 28.40065812 -23.00538503 32.00642312 -27.125 37.9375 C-27.125 38.5975 -27.125 39.2575 -27.125 39.9375 C-28.115 40.4325 -28.115 40.4325 -29.125 40.9375 C-30.22902504 43.33669916 -30.22902504 43.33669916 -31.1875 46.1875 C-31.52910156 47.14140625 -31.87070312 48.0953125 -32.22265625 49.078125 C-36.63871058 63.07185562 -36.11467777 82.41381597 -29.8359375 95.65625 C-25.46873257 103.5966226 -19.92499462 109.20646719 -11.125 111.9375 C-8.10458097 112.15497017 -5.14604667 112.12246204 -2.125 111.9375 C-2.125 112.2675 -2.125 112.5975 -2.125 112.9375 C6.3410701 113.40783723 14.52601621 111.85403919 21.34375 106.515625 C27.24062647 100.4382319 29.875 92.24208165 29.875 83.9375 C20.965 83.9375 12.055 83.9375 2.875 83.9375 C2.875 77.0075 2.875 70.0775 2.875 62.9375 C20.365 62.9375 37.855 62.9375 55.875 62.9375 C55.875 103.70673077 55.875 103.70673077 41.4375 119.625 C40.591875 120.388125 39.74625 121.15125 38.875 121.9375 C38.38644531 122.41832031 37.89789062 122.89914062 37.39453125 123.39453125 C26.17856015 133.91782955 10.33748514 136.55830288 -4.54296875 136.14453125 C-5.72503906 136.07621094 -6.90710938 136.00789062 -8.125 135.9375 C-9.13175781 135.87949219 -10.13851562 135.82148437 -11.17578125 135.76171875 C-24.30538626 134.28708111 -37.54692418 126.87314956 -46.125 116.9375 C-58.86936342 100.7155496 -63.04153928 80.21187019 -60.90234375 59.81445312 C-59.69097638 49.91024527 -57.71756062 40.88643241 -53.125 31.9375 C-52.69445312 31.07898438 -52.26390625 30.22046875 -51.8203125 29.3359375 C-48.02867082 22.41672699 -42.84332083 17.30150147 -37.125 11.9375 C-36.59261719 11.36902344 -36.06023438 10.80054688 -35.51171875 10.21484375 C-34.125 8.9375 -34.125 8.9375 -31.125 7.9375 C-28.25068862 6.73771237 -25.38703917 5.51417293 -22.5234375 4.2890625 C-21.40195312 3.84304688 -20.28046875 3.39703125 -19.125 2.9375 C-18.44872559 2.66188232 -17.77245117 2.38626465 -17.07568359 2.10229492 C-11.2228021 -0.09688758 -6.20470349 -0.41376215 0 0 Z " fill="#171717" transform="translate(891.125,440.0625)"/>
<path d="M0 0 C0.24050903 2.17666626 0.24050903 2.17666626 0.22705078 4.90869141 C0.22680908 5.94388916 0.22656738 6.97908691 0.22631836 8.0456543 C0.21097046 9.68207886 0.21097046 9.68207886 0.1953125 11.3515625 C0.19329834 12.3521167 0.19128418 13.3526709 0.18920898 14.38354492 C0.17872374 18.13074307 0.15080129 21.87787601 0.125 25.625 C0.08375 33.99875 0.0425 42.3725 0 51 C18.81 51 37.62 51 57 51 C56.96049066 36.13157342 56.96049066 36.13157342 56.90991211 21.26318359 C56.90698998 19.39160214 56.90444212 17.52002006 56.90234375 15.6484375 C56.89722778 14.68591064 56.89211182 13.72338379 56.88684082 12.73168945 C56.88665955 11.33188843 56.88665955 11.33188843 56.88647461 9.90380859 C56.884254 9.0999472 56.88203339 8.29608582 56.87974548 7.46786499 C57.01832061 4.62402408 57.53192071 1.80847574 58 -1 C66.58 -1 75.16 -1 84 -1 C83.67 41.9 83.34 84.8 83 129 C74.09 129 65.18 129 56 129 C56 128.01 56 127.02 56 126 C55.67 125.34 55.34 124.68 55 124 C55.66 124 56.32 124 57 124 C57 107.83 57 91.66 57 75 C56.67 75.33 56.34 75.66 56 76 C55.34 75.67 54.68 75.34 54 75 C52.27393547 74.90938144 50.54435493 74.88245499 48.81591797 74.88647461 C47.17175903 74.88665588 47.17175903 74.88665588 45.49438477 74.88684082 C44.33865967 74.89195679 43.18293457 74.89707275 41.9921875 74.90234375 C40.40289429 74.90385437 40.40289429 74.90385437 38.78149414 74.90539551 C34.8126518 74.91063893 30.84382484 74.92460012 26.875 74.9375 C13.571875 74.9684375 13.571875 74.9684375 0 75 C0 92.82 0 110.64 0 129 C-12.375 129.495 -12.375 129.495 -25 130 C-25.8560311 126.57587559 -26.12367913 124.16327762 -26.12025452 120.6975708 C-26.12162918 119.62347458 -26.12300385 118.54937836 -26.12442017 117.44273376 C-26.12082489 116.26957108 -26.11722961 115.09640839 -26.11352539 113.88769531 C-26.11367142 112.64840775 -26.11381744 111.40912018 -26.1139679 110.13227844 C-26.11339076 106.73797158 -26.10837671 103.3437256 -26.10139394 99.94942951 C-26.09514112 96.40067537 -26.09455507 92.85192042 -26.09336853 89.30316162 C-26.09026091 82.58487802 -26.08205518 75.8666107 -26.07201904 69.14833426 C-26.06084025 61.49905435 -26.055343 53.84977366 -26.05032361 46.20048761 C-26.0398721 30.46698232 -26.02228366 14.73349326 -26 -1 C-22.04243356 -1.22515501 -18.08402412 -1.42727348 -14.125 -1.625 C-12.99707031 -1.68945312 -11.86914062 -1.75390625 -10.70703125 -1.8203125 C-9.63066406 -1.871875 -8.55429687 -1.9234375 -7.4453125 -1.9765625 C-6.45031738 -2.02893066 -5.45532227 -2.08129883 -4.43017578 -2.13525391 C-2 -2 -2 -2 0 0 Z " fill="#171718" transform="translate(626,444)"/>
<path d="M0 0 C7.96487662 6.26191859 12.77502931 15.17750975 15.94140625 24.62890625 C16.16699219 25.29148437 16.39257812 25.9540625 16.625 26.63671875 C17.75016783 30.22173625 17.94140625 32.76733049 17.94140625 36.62890625 C9.36140625 36.62890625 0.78140625 36.62890625 -8.05859375 36.62890625 C-9.37859375 32.66890625 -10.69859375 28.70890625 -12.05859375 24.62890625 C-16.59164235 18.03538101 -22.12251263 14.15617366 -30.05859375 12.62890625 C-40.60955814 11.81831579 -48.49705522 12.88556301 -57.30859375 18.81640625 C-68.88158435 30.65241937 -70.32260658 43.93272426 -70.30517578 59.8034668 C-70.15760658 72.60054651 -68.10338913 83.45411862 -59.5 93.4375 C-53.23581071 99.46133671 -45.23418803 101.84675022 -36.68359375 101.94140625 C-28.93986781 101.74311677 -22.52878592 99.98384329 -16.05859375 95.62890625 C-11.27044915 90.4816508 -8.8655581 84.33369503 -7.05859375 77.62890625 C13.42527722 75.37084173 13.42527722 75.37084173 17.94140625 77.62890625 C16.85652167 90.9574882 12.35521917 102.60616989 2.3125 111.734375 C-10.86512729 122.26345117 -26.44186702 125.58721584 -43.05859375 124.62890625 C-60.34837694 122.63040533 -74.40613108 115.32825244 -85.37109375 101.75390625 C-97.84459086 83.83423435 -99.64775215 60.74650121 -96.3984375 39.671875 C-93.25541093 23.25768654 -85.01503297 8.60470248 -71.13671875 -1.06640625 C-49.53956995 -14.62551846 -21.24144984 -14.14753111 0 0 Z " fill="#171717" transform="translate(566.05859375,451.37109375)"/>
<path d="M0 0 C6.53450482 6.91172949 9.19692798 13.07093627 10.11328125 22.5234375 C10.19757889 23.38560883 10.28187653 24.24778015 10.36872864 25.13607788 C11.34803642 36.37079311 11.26327162 47.6291197 11.20581055 58.89746094 C11.18722144 62.68170722 11.18530379 66.46571222 11.18554688 70.25 C11.1806421 72.6588563 11.17481838 75.06771095 11.16796875 77.4765625 C11.16685593 78.6065567 11.1657431 79.7365509 11.16459656 80.90078735 C11.15821671 81.93722382 11.15183685 82.97366028 11.14526367 84.04150391 C11.14145187 84.95380768 11.13764008 85.86611145 11.13371277 86.80606079 C11 89 11 89 10 91 C10.66 91.33 11.32 91.66 12 92 C6.31160882 92.9802248 0.82705667 93.11948801 -4.9375 93.0625 C-5.81212891 93.05798828 -6.68675781 93.05347656 -7.58789062 93.04882812 C-9.72529047 93.03714834 -11.86265463 93.01921689 -14 93 C-14.01213028 91.90578232 -14.01213028 91.90578232 -14.02450562 90.78945923 C-14.10282111 83.87584839 -14.19021957 76.96240388 -14.28752708 70.04903603 C-14.33722757 66.49578287 -14.38355709 62.94255573 -14.421875 59.38916016 C-14.46619853 55.29311404 -14.52573719 51.19740629 -14.5859375 47.1015625 C-14.59748871 45.8407486 -14.60903992 44.57993469 -14.62094116 43.28091431 C-14.75952855 31.27735697 -14.75952855 31.27735697 -18.5625 20.0625 C-23.30030854 16.05358508 -28.58757725 14.63118315 -34.75 15.125 C-38.39041797 15.69044014 -40.95609275 16.87848889 -44 19 C-44.66 19 -45.32 19 -46 19 C-51.19946181 28.65614337 -51.14404371 38.24913691 -51.09765625 48.93359375 C-51.09553383 50.78320457 -51.09553383 50.78320457 -51.09336853 52.67018127 C-51.08778941 56.59264595 -51.07524068 60.51505269 -51.0625 64.4375 C-51.05691698 67.10351479 -51.05291987 69.76952904 -51.04882812 72.43554688 C-51.03782681 78.95705088 -51.02110945 85.4785213 -51 92 C-58.75170232 95.87585116 -68.3408467 92.36079805 -77 92 C-77 59.66 -77 27.32 -77 -6 C-68.75 -6 -60.5 -6 -52 -6 C-51.67 -2.37 -51.34 1.26 -51 5 C-50.01 3.9275 -49.02 2.855 -48 1.75 C-35.40595322 -10.69321988 -13.59841524 -11.4410909 0 0 Z " fill="#171717" transform="translate(804,481)"/>
<path d="M0 0 C0.33 0.66 0.66 1.32 1 2 C1.73412109 1.85860596 2.46824219 1.71721191 3.22460938 1.5715332 C11.48648629 0.19218259 19.99808774 -0.97959439 28 2 C35.01944065 8.48285315 38.95316627 17.54178421 42.73266602 26.1809082 C43.9606451 29.11946294 43.9606451 29.11946294 46 32 C52.33530094 23.3424344 58.70171499 14.06729425 63.25219727 4.31689453 C65 2 65 2 67.72729492 1.43237305 C68.80084229 1.45855713 69.87438965 1.48474121 70.98046875 1.51171875 C72.14384766 1.52783203 73.30722656 1.54394531 74.50585938 1.56054688 C75.72080078 1.60244141 76.93574219 1.64433594 78.1875 1.6875 C80.02731445 1.72133789 80.02731445 1.72133789 81.90429688 1.75585938 C84.93741559 1.81486947 87.96810222 1.89715408 91 2 C89.13314064 5.82180256 86.94887235 9.4019172 84.6875 13 C84.25743652 13.68626465 83.82737305 14.3725293 83.38427734 15.07958984 C78.62884756 22.63747666 73.76090425 30.12247314 68.8828125 37.6015625 C68.39329102 38.36500977 67.90376953 39.12845703 67.39941406 39.91503906 C66 42 66 42 64.62402344 43.67089844 C63.23739298 45.27883776 63.23739298 45.27883776 62 48 C62.78478859 50.84113338 63.51390954 52.5431517 65 55 C65.37302246 55.63776367 65.74604492 56.27552734 66.13037109 56.93261719 C67.44370366 59.10702273 68.80863914 61.2415729 70.1875 63.375 C70.69635742 64.17212402 71.20521484 64.96924805 71.72949219 65.79052734 C73.4805992 68.53073377 75.23978655 71.26563479 77 74 C79.55430081 77.97374801 82.10688726 81.94858477 84.65762329 85.92462158 C85.74238705 87.61314979 86.83053291 89.29950366 87.91870117 90.98583984 C88.57974854 92.01402832 89.2407959 93.0422168 89.921875 94.1015625 C90.51581055 95.02275879 91.10974609 95.94395508 91.72167969 96.89306641 C93 99 93 99 93 100 C84.09 100 75.18 100 66 100 C64.9275 98.081875 63.855 96.16375 62.75 94.1875 C57.50562363 84.91675934 51.74230867 75.96732271 46 67 C42.87361907 70.64531415 40.75037013 74.2615844 38.6640625 78.578125 C28.62999852 98.27251769 28.62999852 98.27251769 22.05322266 101.40234375 C15.66041338 102.77928785 9.37559824 102.28454916 3 101 C2.505 101.99 2.505 101.99 2 103 C1.34 103 0.68 103 0 103 C0 102.34 0 101.68 0 101 C-0.66 100.67 -1.32 100.34 -2 100 C-1.62230469 99.48695313 -1.24460937 98.97390625 -0.85546875 98.4453125 C3.65488002 92.17096316 7.66489632 85.67385459 11.64501953 79.05517578 C15.40871742 72.84785405 19.4359048 66.86235621 23.64746094 60.95068359 C26.14810637 57.78432067 26.14810637 57.78432067 27 54 C28.5 52.375 28.5 52.375 30 51 C28.76410136 46.88544849 27.2866325 43.55409359 24.91015625 39.98046875 C24.29551514 39.0479126 23.68087402 38.11535645 23.04760742 37.15454102 C22.39252197 36.17541748 21.73743652 35.19629395 21.0625 34.1875 C19.70519402 32.13837521 18.34842824 30.08889249 16.9921875 28.0390625 C16.31897461 27.02489258 15.64576172 26.01072266 14.95214844 24.96582031 C13.15169318 22.23046133 11.38364337 19.4782435 9.6328125 16.7109375 C9.13128662 15.92050049 8.62976074 15.13006348 8.11303711 14.31567383 C7.17911051 12.83952918 6.25004444 11.36029555 5.32641602 9.87768555 C4.26977046 8.21741912 3.14224246 6.60258123 2 5 C1.34 5 0.68 5 0 5 C-0.33 4.01 -0.66 3.02 -1 2 C-0.67 1.34 -0.34 0.68 0 0 Z " fill="#161717" transform="translate(373,473)"/>
<path d="M0 0 C8.58 0 17.16 0 26 0 C25.67 42.9 25.34 85.8 25 130 C16.09 130 7.18 130 -2 130 C-2 129.01 -2 128.02 -2 127 C-2.33 126.34 -2.66 125.68 -3 125 C-2.34 125 -1.68 125 -1 125 C-1 108.83 -1 92.66 -1 76 C-1.33 76.33 -1.66 76.66 -2 77 C-2.99 76.505 -2.99 76.505 -4 76 C-5.7865453 75.88055524 -7.57736251 75.82277682 -9.36767578 75.79467773 C-11.04919235 75.7647599 -11.04919235 75.7647599 -12.76467896 75.73423767 C-13.97928802 75.71752518 -15.19389709 75.70081268 -16.4453125 75.68359375 C-17.68546112 75.66281265 -18.92560974 75.64203156 -20.20333862 75.62062073 C-23.50111823 75.56622295 -26.7989272 75.51599905 -30.09680176 75.46777344 C-33.46172653 75.41754766 -36.8265605 75.36186723 -40.19140625 75.30664062 C-46.79419854 75.19938443 -53.39705872 75.09762811 -60 75 C-60 74.34 -60 73.68 -60 73 C-52.06386213 72.97687236 -44.12773824 72.95908277 -36.19157505 72.94818783 C-32.50685502 72.94295992 -28.82215797 72.93586395 -25.13745117 72.92456055 C-21.58429169 72.91372838 -18.03115437 72.90772247 -14.47797966 72.90512276 C-13.11954334 72.9032691 -11.76110829 72.89964962 -10.40268135 72.89426994 C-8.50617777 72.88705525 -6.60965207 72.88659191 -4.71313477 72.88647461 C-3.63169693 72.884254 -2.55025909 72.88203339 -1.43605042 72.87974548 C1 73 1 73 2 74 C2.09353163 75.68801985 2.11744791 77.37995207 2.11352539 79.07055664 C2.11344986 80.15160172 2.11337433 81.23264679 2.11329651 82.34645081 C2.10813522 83.5224736 2.10297394 84.6984964 2.09765625 85.91015625 C2.0962413 87.10732773 2.09482635 88.30449921 2.09336853 89.53794861 C2.08774979 93.37949066 2.07519411 97.22097543 2.0625 101.0625 C2.05748741 103.65950437 2.05292409 106.25650965 2.04882812 108.85351562 C2.03777427 115.23569932 2.02049708 121.61783993 2 128 C8.6 128 15.2 128 22 128 C22.33 86.42 22.66 44.84 23 2 C16.07 2 9.14 2 2 2 C2 7.28 2 12.56 2 18 C1.01 18.495 1.01 18.495 0 19 C-0.1968121 16.95920995 -0.38202831 14.91729993 -0.5625 12.875 C-0.71912109 11.16957031 -0.71912109 11.16957031 -0.87890625 9.4296875 C-1 6 -1 6 0 0 Z " fill="#0E0E0E" transform="translate(684,443)"/>
<path d="M0 0 C3.71619237 3.24716141 3.77684225 6.68966542 4.17578125 11.3984375 C4.25556717 12.26963226 4.33535309 13.14082703 4.41755676 14.03842163 C5.33546491 25.30570594 5.26341549 36.60090774 5.20581055 47.89746094 C5.18722144 51.68170722 5.18530379 55.46571222 5.18554688 59.25 C5.1806421 61.6588563 5.17481838 64.06771095 5.16796875 66.4765625 C5.16685593 67.6065567 5.1657431 68.7365509 5.16459656 69.90078735 C5.15821671 70.93722382 5.15183685 71.97366028 5.14526367 73.04150391 C5.13954597 74.40995956 5.13954597 74.40995956 5.13371277 75.80606079 C5 78 5 78 4 80 C4.66 80.33 5.32 80.66 6 81 C-2.58590576 82.22655797 -11.32692545 82 -20 82 C-20 60.55 -20 39.1 -20 17 C-19.34 17.33 -18.68 17.66 -18 18 C-18 38.13 -18 58.26 -18 79 C-11.4 79 -4.8 79 2 79 C1.89134958 70.47146645 1.77907912 61.94300312 1.66066074 53.41460037 C1.60579802 49.45334594 1.55244238 45.49208383 1.50268555 41.53076172 C1.45449417 37.69869183 1.40214217 33.86669817 1.34705925 30.03472137 C1.32688053 28.58212973 1.30813161 27.12951741 1.29092598 25.67688751 C1.18802568 17.08080897 0.85901282 8.55818435 0 0 Z " fill="#070707" transform="translate(810,492)"/>
<path d="M0 0 C0.33 0 0.66 0 1 0 C1 32.34 1 64.68 1 98 C0.34 98 -0.32 98 -1 98 C-1.8701383 92.75017734 -2.14838786 87.70625001 -2.14526367 82.39013672 C-2.14862228 81.55833893 -2.1519809 80.72654114 -2.15544128 79.86953735 C-2.16488557 77.13957193 -2.16689067 74.4096682 -2.16796875 71.6796875 C-2.17118436 69.7735288 -2.17454866 67.86737035 -2.17805481 65.96121216 C-2.18402864 61.97527494 -2.18589635 57.98935935 -2.18530273 54.00341797 C-2.18520086 48.89788645 -2.19888651 43.79249323 -2.21607494 38.68699455 C-2.2271917 34.7544796 -2.22922209 30.82199821 -2.22869301 26.88946915 C-2.22987232 25.00682216 -2.23429137 23.12417429 -2.24202538 21.24154282 C-2.25182468 18.6112875 -2.24894815 15.98133442 -2.24291992 13.35107422 C-2.25134918 12.18828949 -2.25134918 12.18828949 -2.25994873 11.00201416 C-2.23602164 6.89270159 -1.84059927 3.69694064 0 0 Z " fill="#0F0F10" transform="translate(602,450)"/>
<path d="M0 0 C17.49 0 34.98 0 53 0 C53 19 53 19 51 27 C50.67 27 50.34 27 50 27 C50 18.75 50 10.5 50 2 C34.16 2 18.32 2 2 2 C2 7.28 2 12.56 2 18 C3.45792969 17.98839844 4.91585937 17.97679687 6.41796875 17.96484375 C8.34114455 17.9554624 10.26432174 17.94636257 12.1875 17.9375 C13.14720703 17.92912109 14.10691406 17.92074219 15.09570312 17.91210938 C16.02705078 17.90888672 16.95839844 17.90566406 17.91796875 17.90234375 C19.19837036 17.89448853 19.19837036 17.89448853 20.50463867 17.88647461 C23.09246747 18.00420677 25.47661953 18.42892956 28 19 C27.67 19.66 27.34 20.32 27 21 C18.09 21 9.18 21 0 21 C0 14.07 0 7.14 0 0 Z " fill="#0C0C0C" transform="translate(894,503)"/>
<path d="M0 0 C0.66 0 1.32 0 2 0 C2 29.04 2 58.08 2 88 C1.34 88 0.68 88 0 88 C-0.83328259 82.93108398 -1.14381843 78.0172998 -1.12939453 72.87744141 C-1.13114685 72.09773987 -1.13289917 71.31803833 -1.13470459 70.51470947 C-1.13907486 67.96030394 -1.13620396 65.40596863 -1.1328125 62.8515625 C-1.13348652 61.07034288 -1.13445736 59.28912336 -1.13571167 57.50790405 C-1.13718174 53.78764972 -1.13505478 50.06741949 -1.13037109 46.34716797 C-1.12464925 41.56861284 -1.12797261 36.79011357 -1.13394356 32.01156044 C-1.13754661 28.339992 -1.1364122 24.66843696 -1.13381577 20.99686813 C-1.13314707 19.23372771 -1.13397292 17.47058608 -1.13629532 15.70744705 C-1.13882032 13.25366202 -1.13498459 10.7999695 -1.12939453 8.34619141 C-1.13141876 7.61272491 -1.13344299 6.87925842 -1.13552856 6.12356567 C-1.11426798 1.11426798 -1.11426798 1.11426798 0 0 Z " fill="#0C0C0C" transform="translate(728,480)"/>
<path d="M0 0 C-0.97839844 0.47308594 -1.95679688 0.94617188 -2.96484375 1.43359375 C-17.1101551 8.47463878 -27.04689815 17.84691302 -32.71582031 32.90087891 C-35.50435311 41.23435135 -37.13521013 49.36082874 -37.09765625 58.1484375 C-37.0962413 58.80582916 -37.09482635 59.46322083 -37.09336853 60.14053345 C-37.08781762 62.21873731 -37.07527465 64.29682927 -37.0625 66.375 C-37.05747864 67.79296718 -37.05291685 69.21093607 -37.04882812 70.62890625 C-37.03786437 74.08597322 -37.02063421 77.54297567 -37 81 C-43.42043139 71.36935291 -41.08648474 53.8431184 -38.92382812 42.80517578 C-35.03693387 26.37953529 -26.4737667 12.16386412 -12 3 C-4.48695562 -1.51881462 -4.48695562 -1.51881462 0 0 Z " fill="#0B0B0C" transform="translate(509,446)"/>
<path d="M0 0 C2.36916232 0.06617772 4.73733135 0.18506735 7.1015625 0.3515625 C8.31457031 0.39667969 9.52757812 0.44179688 10.77734375 0.48828125 C13.76547974 0.6059244 16.74347395 0.76997742 19.7265625 0.9765625 C17.85969789 4.79837581 15.67531923 8.37840059 13.4140625 11.9765625 C12.98472412 12.66210205 12.55538574 13.3476416 12.11303711 14.05395508 C7.85176918 20.82957483 3.48823663 27.53835546 -0.89379883 34.23632812 C-1.41997803 35.04134766 -1.94615723 35.84636719 -2.48828125 36.67578125 C-2.97925293 37.42520996 -3.47022461 38.17463867 -3.97607422 38.94677734 C-5.04478405 40.61882354 -6.04586301 42.3338982 -7.02734375 44.05859375 C-7.43855469 44.69152344 -7.84976562 45.32445312 -8.2734375 45.9765625 C-8.9334375 45.9765625 -9.5934375 45.9765625 -10.2734375 45.9765625 C-8.88469144 42.20564836 -7.14528806 38.95397465 -5.0078125 35.5546875 C-4.36457031 34.52859375 -3.72132813 33.5025 -3.05859375 32.4453125 C-2.38699219 31.383125 -1.71539062 30.3209375 -1.0234375 29.2265625 C-0.36730469 28.17984375 0.28882813 27.133125 0.96484375 26.0546875 C4.41241759 20.57146867 7.91407978 15.14166453 11.58886719 9.80761719 C12.8910989 7.86974062 12.8910989 7.86974062 13.7265625 4.9765625 C14.3865625 4.9765625 15.0465625 4.9765625 15.7265625 4.9765625 C15.7265625 4.3165625 15.7265625 3.6565625 15.7265625 2.9765625 C3.48818699 1.91971554 3.48818699 1.91971554 -7.16015625 6.4921875 C-8.86248965 9.27587734 -10.19869266 11.89934497 -11.2734375 14.9765625 C-12.25453826 12.3747106 -12.31755317 11.12800221 -11.52880859 8.42041016 C-8.60325709 2.69668812 -6.61125583 0.33085301 0 0 Z " fill="#080809" transform="translate(444.2734375,474.0234375)"/>
<path d="M0 0 C0.33 0 0.66 0 1 0 C1.01458252 0.68924561 1.02916504 1.37849121 1.04418945 2.08862305 C1.55658465 23.76674196 2.67343611 43.2512804 18.51171875 59.80078125 C22.64593116 63.45472408 27.20592189 66.29381011 32 69 C30.296875 69.6796875 30.296875 69.6796875 28 70 C16.42424182 64.36961422 7.4762193 52.77059278 2.8125 41.00390625 C-1.16798038 29.047831 -3.28303743 15.60395592 -2 3 C-1.34 2.01 -0.68 1.02 0 0 Z " fill="#0C0D0D" transform="translate(832,499)"/>
<path d="M0 0 C4.34640392 3.9569412 7.16348322 8.19860701 10.125 13.25 C11.08922554 14.86182739 12.05542399 16.47247594 13.0234375 18.08203125 C13.51424805 18.89881348 14.00505859 19.7155957 14.51074219 20.55712891 C16.85195076 24.39747857 19.29427427 28.16969439 21.75 31.9375 C22.20560303 32.6377832 22.66120605 33.33806641 23.13061523 34.05957031 C24.00865644 35.40833872 24.88713818 36.75682048 25.76611328 38.10498047 C27.58382486 40.89664593 29.38918515 43.6957867 31.1875 46.5 C31.73792969 47.3559375 32.28835938 48.211875 32.85546875 49.09375 C34 51 34 51 34 52 C25.42 52 16.84 52 8 52 C8 51.34 8 50.68 8 50 C18.395 49.505 18.395 49.505 29 49 C22.69237459 38.86957132 16.32992072 28.77699767 9.91162109 18.71630859 C8.79361379 16.96326549 7.67763515 15.20892649 6.56396484 13.453125 C5.54357336 11.85261085 4.51307012 10.25848557 3.47119141 8.671875 C3.01276855 7.96546875 2.5543457 7.2590625 2.08203125 6.53125 C1.67831299 5.91830078 1.27459473 5.30535156 0.85864258 4.67382812 C0 3 0 3 0 0 Z " fill="#0A0A0A" transform="translate(432,521)"/>
<path d="M0 0 C0.33 0 0.66 0 1 0 C1.33 20.13 1.66 40.26 2 61 C-0.59891154 62.29945577 -2.32666656 62.0223077 -5.2265625 61.87890625 C-6.2578125 61.83056641 -7.2890625 61.78222656 -8.3515625 61.73242188 C-9.97191406 61.64831055 -9.97191406 61.64831055 -11.625 61.5625 C-12.71296875 61.51029297 -13.8009375 61.45808594 -14.921875 61.40429688 C-17.6148581 61.27437225 -20.30749336 61.13939838 -23 61 C-22.67 60.34 -22.34 59.68 -22 59 C-15.07 59 -8.14 59 -1 59 C-1.00523682 57.35483398 -1.01047363 55.70966797 -1.01586914 54.01464844 C-1.03395525 47.91683495 -1.04544528 41.81902384 -1.05493164 35.72119141 C-1.05996357 33.08088787 -1.06678971 30.44058713 -1.07543945 27.80029297 C-1.08755479 24.00747998 -1.0932397 20.2147038 -1.09765625 16.421875 C-1.10281754 15.23946228 -1.10797882 14.05704956 -1.11329651 12.83880615 C-1.11340981 11.1875473 -1.11340981 11.1875473 -1.11352539 9.50292969 C-1.115746 8.53474304 -1.11796661 7.5665564 -1.12025452 6.56903076 C-1.01048862 4.22407125 -0.66739034 2.24230591 0 0 Z " fill="#050505" transform="translate(751,512)"/>
<path d="M0 0 C0.20254517 2.25259399 0.20254517 2.25259399 0.13525391 5.09228516 C0.11508209 6.15323395 0.09491028 7.21418274 0.0741272 8.30728149 C0.04193085 9.45626923 0.0097345 10.60525696 -0.0234375 11.7890625 C-0.04846344 12.96262299 -0.07348938 14.13618347 -0.09927368 15.3453064 C-0.18165638 19.10549019 -0.27817605 22.86516298 -0.375 26.625 C-0.43322082 29.16924974 -0.49052447 31.71352065 -0.546875 34.2578125 C-0.68726239 40.50549315 -0.8392678 46.75281146 -1 53 C-1.66 53 -2.32 53 -3 53 C-3 35.84 -3 18.68 -3 1 C-9.93 1 -16.86 1 -24 1 C-23.67 0.34 -23.34 -0.32 -23 -1 C-19.54254978 -1.22527296 -16.08412975 -1.42733544 -12.625 -1.625 C-11.64015625 -1.68945312 -10.6553125 -1.75390625 -9.640625 -1.8203125 C-8.69960938 -1.871875 -7.75859375 -1.9234375 -6.7890625 -1.9765625 C-5.91975098 -2.02893066 -5.05043945 -2.08129883 -4.15478516 -2.13525391 C-2 -2 -2 -2 0 0 Z " fill="#030303" transform="translate(626,444)"/>
<path d="M0 0 C10.76579372 -0.60747425 18.82110276 0.36592432 27.375 7.25 C31.12274351 10.76256123 33.07149411 14.25908968 35 19 C35 19.66 35 20.32 35 21 C42.92 20.67 50.84 20.34 59 20 C59 20.99 59 21.98 59 23 C55.04204914 23.19625099 51.08363065 23.38051982 47.125 23.5625 C45.43310547 23.64661133 45.43310547 23.64661133 43.70703125 23.73242188 C42.63066406 23.78076172 41.55429687 23.82910156 40.4453125 23.87890625 C38.95281982 23.94960327 38.95281982 23.94960327 37.43017578 24.02172852 C35 24 35 24 33 23 C32.10546875 21.14453125 32.10546875 21.14453125 31.1875 18.8125 C27.88298661 11.18669986 23.75634639 7.08169617 16 4 C10.70987119 2.17250096 5.5432775 1.47765203 0 1 C0 0.67 0 0.34 0 0 Z " fill="#080808" transform="translate(886,461)"/>
<path d="M0 0 C1.01037827 0.0199855 2.02075653 0.03997101 3.06175232 0.06056213 C4.77341331 0.09070656 4.77341331 0.09070656 6.51965332 0.12145996 C7.76129745 0.14849503 9.00294159 0.17553009 10.2822113 0.2033844 C12.17785072 0.23880089 12.17785072 0.23880089 14.11178589 0.27493286 C17.47711868 0.33871839 20.84230486 0.40690558 24.20750427 0.47718811 C27.63923723 0.54778908 31.07107796 0.61265525 34.50291443 0.67799377 C41.24065713 0.8074482 47.9782651 0.94270264 54.71580505 1.08229065 C54.71580505 1.74229065 54.71580505 2.40229065 54.71580505 3.08229065 C47.44888177 3.12858615 40.18199018 3.16414558 32.91494942 3.18591499 C29.54073511 3.19636207 26.16662154 3.2105379 22.79246521 3.23316956 C18.91532188 3.2573395 15.03832229 3.26875576 11.16111755 3.27760315 C9.94650848 3.28792572 8.73189941 3.29824829 7.48048401 3.30888367 C6.35947296 3.30903473 5.23846191 3.30918579 4.08348083 3.30934143 C3.09308807 3.31378265 2.10269531 3.31822388 1.08229065 3.32279968 C-1.28419495 3.08229065 -1.28419495 3.08229065 -3.28419495 1.08229065 C-2.28419495 0.08229065 -2.28419495 0.08229065 0 0 Z " fill="#060607" transform="translate(629.2841949462891,494.91770935058594)"/>
<path d="M0 0 C8.76517115 -0.99604218 16.87053624 3.15922658 23.8125 8.25 C30.43384253 13.77978063 38.29905193 22.30077498 39.23828125 31.27734375 C39.24834722 33.18652218 39.13602522 35.09564689 39 37 C37.62286557 34.31217183 36.40790111 31.60060398 35.25 28.8125 C29.55067018 16.09861039 21.86068959 9.12875776 8.89453125 4.04296875 C5.94446927 2.97999095 2.97999296 1.97567177 0 1 C0 0.67 0 0.34 0 0 Z " fill="#0C0C0D" transform="translate(904,443)"/>
<path d="M0 0 C-0.66 0.33 -1.32 0.66 -2 1 C-3.99849459 0.25847712 -5.97386663 -0.54555393 -7.9375 -1.375 C-21.23225771 -6.51603736 -36.05433799 -5.35495969 -50 -4 C-50 -4.66 -50 -5.32 -50 -6 C-33.71665683 -10.27104083 -13.98375735 -10.14507886 0 0 Z " fill="#111011" transform="translate(560,449)"/>
<path d="M0 0 C0.66 0 1.32 0 2 0 C2 6.27 2 12.54 2 19 C8.93 19 15.86 19 23 19 C23.33 17.68 23.66 16.36 24 15 C24 16.98 24 18.96 24 21 C16.08 21.33 8.16 21.66 0 22 C-1.81103781 14.75584874 -1.30004806 7.31277034 0 0 Z " fill="#050505" transform="translate(601,552)"/>
<path d="M0 0 C7.92 0 15.84 0 24 0 C24 1.65 24 3.3 24 5 C23.67 4.01 23.34 3.02 23 2 C16.07 2 9.14 2 2 2 C2 7.28 2 12.56 2 18 C1.34 18.33 0.68 18.66 0 19 C-0.1968121 16.95920995 -0.38202831 14.91729993 -0.5625 12.875 C-0.66691406 11.73804688 -0.77132812 10.60109375 -0.87890625 9.4296875 C-1 6 -1 6 0 0 Z " fill="#020202" transform="translate(684,443)"/>
<path d="M0 0 C2.475 0.495 2.475 0.495 5 1 C4.01 1.33 3.02 1.66 2 2 C1.27395207 3.64166886 0.61961274 5.31527383 0 7 C-1.19745702 9.15097483 -2.43313472 11.28088433 -3.6953125 13.39453125 C-4.22377274 14.28285896 -4.22377274 14.28285896 -4.76290894 15.18913269 C-5.88025295 17.06561183 -7.00253678 18.93907951 -8.125 20.8125 C-8.8870479 22.09029855 -9.64877009 23.36829141 -10.41015625 24.64648438 C-12.26967423 27.76657998 -14.13363187 30.88399599 -16 34 C-17.19594292 30.00778767 -16.68790338 27.85806487 -15 24 C-14.41992188 23.443125 -13.83984375 22.88625 -13.2421875 22.3125 C-10.21483631 19.19021445 -8.08856628 15.68983432 -5.8125 12 C-5.36197266 11.2884375 -4.91144531 10.576875 -4.44726562 9.84375 C-4.01736328 9.1528125 -3.58746094 8.461875 -3.14453125 7.75 C-2.75628174 7.12609375 -2.36803223 6.5021875 -1.96801758 5.859375 C-0.95851928 3.92032354 -0.44235271 2.13415266 0 0 Z " fill="#0D0E0F" transform="translate(416,536)"/>
<path d="M0 0 C2.01729827 3.02594741 2.99293919 5.64189755 4.1875 9.0625 C7.86690636 18.76275313 13.45314765 25.99078621 21 33 C21.66 33.66 22.32 34.32 23 35 C22.01 35.495 22.01 35.495 21 36 C10.63823411 27.34766249 1.71011424 17.81957484 0.125 3.6875 C0.08375 2.470625 0.0425 1.25375 0 0 Z " fill="#0B0C0C" transform="translate(472,529)"/>
<path d="M0 0 C2.03595479 3.05393219 3.03612735 5.73605542 4.25 9.1875 C8.35632361 20.03302531 14.46357974 25.79023797 24 32 C23.01 32.495 23.01 32.495 22 33 C12.47740019 29.51612202 6.36534474 22.05771432 2.046875 13.16625977 C-0.03577738 8.50998992 -0.70205391 5.01467078 0 0 Z " fill="#0A0A0B" transform="translate(494,521)"/>
<path d="M0 0 C0.33 0 0.66 0 1 0 C0.1078046 7.51993262 0.1078046 7.51993262 -0.5 10.2265625 C-1.06860948 13.38056823 -1.21401779 16.40998525 -1.31640625 19.61328125 C-1.35830078 20.86044922 -1.40019531 22.10761719 -1.44335938 23.39257812 C-1.48267578 24.68615234 -1.52199219 25.97972656 -1.5625 27.3125 C-1.60568359 28.62541016 -1.64886719 29.93832031 -1.69335938 31.29101562 C-1.79927227 34.52724288 -1.90134885 37.76354458 -2 41 C-3.84414045 37.85075445 -4.24744568 35.56141913 -4.23046875 31.9296875 C-4.22853516 30.95 -4.22660156 29.9703125 -4.22460938 28.9609375 C-4.21236328 27.94257813 -4.20011719 26.92421875 -4.1875 25.875 C-4.18685547 24.87984375 -4.18621094 23.8846875 -4.18554688 22.859375 C-4.14830122 16.51933601 -3.75448133 10.29457955 -3 4 C-2.34 4 -1.68 4 -1 4 C-0.67 2.68 -0.34 1.36 0 0 Z " fill="#0C0D0D" transform="translate(858,484)"/>
<path d="M0 0 C2.1875 0.3125 2.1875 0.3125 4 1 C3.34773437 1.556875 2.69546875 2.11375 2.0234375 2.6875 C-7.46455883 10.97200417 -12.55164026 18.19019537 -17 30 C-17.66 30 -18.32 30 -19 30 C-17.56140851 18.81822067 -10.66446091 10.82504961 -3 3 C-2.49855469 2.3915625 -1.99710938 1.783125 -1.48046875 1.15625 C-0.99191406 0.7746875 -0.50335937 0.393125 0 0 Z " fill="#0B0B0B" transform="translate(854,452)"/>
<path d="M0 0 C0.33 0 0.66 0 1 0 C1.82117428 9.44350424 -2.54200792 17.19270241 -7.9921875 24.66015625 C-11.17784189 28.37262119 -14.8320316 31.43640233 -19 34 C-19.66 34 -20.32 34 -21 34 C-21 33.34 -21 32.68 -21 32 C-19.52848939 30.8782747 -18.02097251 29.80368578 -16.5 28.75 C-7.45952173 21.69714461 -2.45002855 11.07617073 0 0 Z " fill="#0C0C0C" transform="translate(943,533)"/>
<path d="M0 0 C0.66 0 1.32 0 2 0 C2.3403125 0.78503906 2.680625 1.57007813 3.03125 2.37890625 C8.3200283 13.84261453 13.93192878 18.6396409 25.65625 23.15234375 C26.4296875 23.43207031 27.203125 23.71179688 28 24 C28 24.33 28 24.66 28 25 C19.54843904 24.73169648 14.36076084 22.14756809 8.2421875 16.328125 C4.13163293 11.82510543 0 6.26430851 0 0 Z " fill="#0A0B0B" transform="translate(857,530)"/>
<path d="M0 0 C0.33 0 0.66 0 1 0 C1.89107075 7.84142263 -1.07915314 15.3136086 -5.9375 21.4453125 C-14.08168903 29.80544594 -14.08168903 29.80544594 -19.8125 30.1875 C-20.534375 30.125625 -21.25625 30.06375 -22 30 C-20.16327855 27.85715831 -18.71062131 26.8616015 -16.125 25.625 C-6.72994672 20.7395723 -3.76247865 11.87084654 -0.734375 2.37890625 C-0.49203125 1.59386719 -0.2496875 0.80882812 0 0 Z " fill="#0B0B0C" transform="translate(923,524)"/>
<path d="M0 0 C0.66 0.33 1.32 0.66 2 1 C1.28714844 1.46148437 0.57429687 1.92296875 -0.16015625 2.3984375 C-9.48448221 8.74851682 -14.80862627 15.63186497 -19 26 C-19.66 26.33 -20.32 26.66 -21 27 C-19.88125715 17.69095457 -14.96197053 10.17288601 -7.75 4.3125 C-5.08603558 2.31452669 -3.16833003 1.05611001 0 0 Z " fill="#0A0A0A" transform="translate(516,463)"/>
<path d="M0 0 C0.33 0.99 0.66 1.98 1 3 C-3.97721386 11.005309 -13.02238337 18.18349282 -22 21 C-24.19921875 20.5625 -24.19921875 20.5625 -26 20 C-25.13117187 19.55269531 -24.26234375 19.10539063 -23.3671875 18.64453125 C-17.42096051 15.52509002 -12.03222971 12.48820488 -7 8 C-6.34 8 -5.68 8 -5 8 C-4.731875 7.4225 -4.46375 6.845 -4.1875 6.25 C-2.98280141 3.9674132 -1.59201885 2.0262058 0 0 Z " fill="#0B0B0B" transform="translate(575,551)"/>
<path d="M0 0 C0.33 0 0.66 0 1 0 C1.22693321 4.04084621 1.42824509 8.08258086 1.625 12.125 C1.68945312 13.26710938 1.75390625 14.40921875 1.8203125 15.5859375 C1.871875 16.69453125 1.9234375 17.803125 1.9765625 18.9453125 C2.02893066 19.96125488 2.08129883 20.97719727 2.13525391 22.02392578 C1.98523734 25.32483186 1.17450289 27.92544806 0 31 C-0.33 31 -0.66 31 -1 31 C-1.02465622 26.74585377 -1.04283899 22.49174502 -1.05493164 18.23754883 C-1.05997101 16.78929927 -1.06680253 15.34105483 -1.07543945 13.89282227 C-1.08752247 11.81525412 -1.09323211 9.73775303 -1.09765625 7.66015625 C-1.10289307 6.40855713 -1.10812988 5.15695801 -1.11352539 3.86743164 C-1 1 -1 1 0 0 Z " fill="#050505" transform="translate(624,520)"/>
<path d="M0 0 C3.72915017 -0.02912348 7.4582709 -0.04684037 11.1875 -0.0625 C12.77014648 -0.07506836 12.77014648 -0.07506836 14.38476562 -0.08789062 C15.91713867 -0.09272461 15.91713867 -0.09272461 17.48046875 -0.09765625 C18.41785889 -0.10289307 19.35524902 -0.10812988 20.32104492 -0.11352539 C22.98049477 -0.00082657 25.40920573 0.40623351 28 1 C27.67 1.66 27.34 2.32 27 3 C18.09 3 9.18 3 0 3 C0 2.01 0 1.02 0 0 Z " fill="#0B0B0B" transform="translate(894,521)"/>
<path d="M0 0 C3.62493334 -0.05787784 7.24974857 -0.0935542 10.875 -0.125 C11.90753906 -0.14175781 12.94007813 -0.15851562 14.00390625 -0.17578125 C14.99003906 -0.18222656 15.97617187 -0.18867187 16.9921875 -0.1953125 C18.35899658 -0.21102295 18.35899658 -0.21102295 19.75341797 -0.22705078 C22 0 22 0 24 2 C17.08665205 4.30444932 8.09587833 3.61269962 1 2 C0.67 1.34 0.34 0.68 0 0 Z " fill="#101111" transform="translate(515,573)"/>
<path d="M0 0 C4.94545353 0.73265978 7.81920876 3.46394906 10.8046875 7.34765625 C18.20465206 17.77208765 18.20465206 17.77208765 17.625 21.25 C17.315625 22.11625 17.315625 22.11625 17 23 C16.72800781 22.43023437 16.45601562 21.86046875 16.17578125 21.2734375 C12.05522262 13.30611151 6.44404663 6.20537824 0 0 Z " fill="#0D0D0D" transform="translate(562,451)"/>
<path d="M0 0 C0.33 0 0.66 0 1 0 C2.03387512 8.0125322 2.10466648 15.92905177 2 24 C1.34 24 0.68 24 0 24 C-1.43438575 16.46947483 -2.43869509 7.31608526 0 0 Z " fill="#121213" transform="translate(601,524)"/>
<path d="M0 0 C1.23556641 0.01740234 1.23556641 0.01740234 2.49609375 0.03515625 C3.32238281 0.04417969 4.14867187 0.05320312 5 0.0625 C5.63808594 0.07410156 6.27617188 0.08570313 6.93359375 0.09765625 C1.93915292 4.20023264 -2.36956531 4.27910085 -8.69140625 4.28515625 C-9.37203125 4.29740234 -10.05265625 4.30964844 -10.75390625 4.32226562 C-12.52631381 4.3275198 -14.29820565 4.21981531 -16.06640625 4.09765625 C-16.72640625 3.43765625 -17.38640625 2.77765625 -18.06640625 2.09765625 C-16.99519531 2.03707031 -15.92398438 1.97648438 -14.8203125 1.9140625 C-13.42316234 1.82967088 -12.02602768 1.74502219 -10.62890625 1.66015625 C-9.56833008 1.60118164 -9.56833008 1.60118164 -8.48632812 1.54101562 C-5.3266402 1.34448001 -2.84144879 0.13428397 0 0 Z " fill="#0C0C0C" transform="translate(538.06640625,551.90234375)"/>
<path d="M0 0 C0.66 0 1.32 0 2 0 C2.6953125 1.69921875 2.6953125 1.69921875 3 4 C1.7421875 6.33203125 1.7421875 6.33203125 -0.125 8.8125 C-1.08986328 10.11767578 -1.08986328 10.11767578 -2.07421875 11.44921875 C-2.70972656 12.29097656 -3.34523438 13.13273438 -4 14 C-4.983434 15.37195114 -5.96327906 16.74649141 -6.9375 18.125 C-7.618125 19.07375 -8.29875 20.0225 -9 21 C-10 18 -10 18 -8.890625 15.66015625 C-8.34921875 14.80292969 -7.8078125 13.94570313 -7.25 13.0625 C-6.71890625 12.20785156 -6.1878125 11.35320313 -5.640625 10.47265625 C-2.61394558 5.91101798 -2.61394558 5.91101798 -1 4 C-0.34 4 0.32 4 1 4 C0.67 2.68 0.34 1.36 0 0 Z " fill="#0C0D0F" transform="translate(404,520)"/>
<path d="M0 0 C5.65904608 1.09651895 10.10063026 4.58593294 13.62890625 9.0703125 C17 14.27581909 17 14.27581909 17 18 C16.34 18 15.68 18 15 18 C14.78085937 17.48050781 14.56171875 16.96101563 14.3359375 16.42578125 C11.62952164 10.4738667 8.70996361 6.80484716 2.6875 3.875 C1 3 1 3 0 0 Z " fill="#0B0B0B" transform="translate(541,463)"/>
<path d="M0 0 C0.33 0 0.66 0 1 0 C1.0270491 3.06255961 1.04686298 6.1248786 1.0625 9.1875 C1.07087891 10.05181641 1.07925781 10.91613281 1.08789062 11.80664062 C1.10396812 16.00286769 1.07559038 19.90936886 0 24 C-0.33 24 -0.66 24 -1 24 C-1.91160286 16.64206267 -2.11459026 9.41017023 -2 2 C-1.34 2 -0.68 2 0 2 C0 1.34 0 0.68 0 0 Z " fill="#0B0B0B" transform="translate(685,517)"/>
<path d="M0 0 C-0.78503906 0.43570312 -1.57007813 0.87140625 -2.37890625 1.3203125 C-8.4720532 4.77434182 -13.87353413 8.22306589 -19 13 C-18.17125566 7.61316181 -14.18280525 5.0832401 -10 2 C-6.44616739 -0.06781188 -4.08785687 -1.36261896 0 0 Z " fill="#0C0C0C" transform="translate(883,463)"/>
<path d="M0 0 C-2.29935195 2.29935195 -3.64993372 2.60611859 -6.75 3.4375 C-10.77382558 4.57719626 -14.28833317 6.05137491 -18 8 C-18.66 8 -19.32 8 -20 8 C-19 5 -19 5 -16.5234375 3.61328125 C-6.09998929 -0.6931806 -6.09998929 -0.6931806 0 0 Z " fill="#0C0C0C" transform="translate(879,443)"/>
<path d="M0 0 C0.33 0.66 0.66 1.32 1 2 C0.18015625 2.12117188 -0.6396875 2.24234375 -1.484375 2.3671875 C-2.56203125 2.53476562 -3.6396875 2.70234375 -4.75 2.875 C-6.35101562 3.11863281 -6.35101562 3.11863281 -7.984375 3.3671875 C-10.94736919 3.84995962 -10.94736919 3.84995962 -13.203125 5.1328125 C-15 6 -15 6 -18 5 C-12.39884772 0.26056345 -7.05353749 -0.24322543 0 0 Z " fill="#090909" transform="translate(776,493)"/>
<path d="M0 0 C0.79921875 0.00902344 1.5984375 0.01804687 2.421875 0.02734375 C3.02515625 0.03894531 3.6284375 0.05054688 4.25 0.0625 C4.25 0.7225 4.25 1.3825 4.25 2.0625 C3.03763672 2.26166016 3.03763672 2.26166016 1.80078125 2.46484375 C0.73214844 2.64144531 -0.33648438 2.81804687 -1.4375 3 C-2.49324219 3.17402344 -3.54898438 3.34804688 -4.63671875 3.52734375 C-7.35249604 3.99417121 -10.05124235 4.50672616 -12.75 5.0625 C-8.70947693 0.58906375 -5.9033506 -0.08681398 0 0 Z " fill="#0B0A0A" transform="translate(776.75,473.9375)"/>
<path d="M0 0 C0.66 0 1.32 0 2 0 C2 5.28 2 10.56 2 16 C1.34 16.33 0.68 16.66 0 17 C-0.19561869 14.9174133 -0.38119313 12.83388144 -0.5625 10.75 C-0.66691406 9.58984375 -0.77132812 8.4296875 -0.87890625 7.234375 C-0.98198087 4.48128523 -0.86213473 2.580018 0 0 Z " fill="#0C0C0D" transform="translate(684,445)"/>
<path d="M0 0 C4.92178161 0.43427485 7.45459675 2.69095697 11 6 C11.99 7.485 11.99 7.485 13 9 C12.67 9.99 12.34 10.98 12 12 C11.55269531 11.45730469 11.10539063 10.91460937 10.64453125 10.35546875 C7.36708185 6.47703716 4.58116324 3.35999319 0 1 C0 0.67 0 0.34 0 0 Z " fill="#0B0B0B" transform="translate(796,478)"/>
<path d="M0 0 C0.33 0 0.66 0 1 0 C1.70776992 7.35575165 2.14715692 14.6094524 2 22 C1.34 22 0.68 22 0 22 C-0.90249856 16.85910079 -0.97986395 12.30273626 -0.5625 7.0625 C-0.51029297 6.37865234 -0.45808594 5.69480469 -0.40429688 4.99023438 C-0.27630102 3.32628831 -0.13912281 1.6630527 0 0 Z " fill="#040505" transform="translate(728,546)"/>
<path d="M0 0 C0.99 0.33 1.98 0.66 3 1 C0.36 5.29 -2.28 9.58 -5 14 C-6 10 -6 10 -4.78515625 7.421875 C-4.21667969 6.54015625 -3.64820313 5.6584375 -3.0625 4.75 C-2.49660156 3.85796875 -1.93070312 2.9659375 -1.34765625 2.046875 C-0.90292969 1.37140625 -0.45820313 0.6959375 0 0 Z " fill="#0B0C0C" transform="translate(438,475)"/>
<path d="M0 0 C4.23431576 3.60700972 6.4692099 8.14586161 9 13 C7.171875 12.7734375 7.171875 12.7734375 5 12 C3.515625 10.0390625 3.515625 10.0390625 2.25 7.625 C1.82203125 6.83351563 1.3940625 6.04203125 0.953125 5.2265625 C0 3 0 3 0 0 Z " fill="#0B0B0C" transform="translate(422,541)"/>
<path d="M0 0 C0 3.12900213 -0.42451317 4.37418862 -2 7 C-2.99 7.495 -2.99 7.495 -4 8 C-4 8.99 -4 9.98 -4 11 C-4.99 11.495 -4.99 11.495 -6 12 C-6 11.34 -6 10.68 -6 10 C-6.66 9.67 -7.32 9.34 -8 9 C-7.04663979 7.68388323 -6.08714226 6.37221039 -5.125 5.0625 C-4.59132813 4.33160156 -4.05765625 3.60070312 -3.5078125 2.84765625 C-2 1 -2 1 0 0 Z " fill="#1C242D" transform="translate(379,564)"/>
<path d="M0 0 C0.66 0 1.32 0 2 0 C0.68315519 4.60895683 -1.15198745 8.14140235 -4 12 C-4.33 12 -4.66 12 -5 12 C-5.70731186 7.33174173 -3.92277529 4.96719769 -1.2890625 1.35546875 C-0.86367188 0.90816406 -0.43828125 0.46085937 0 0 Z " fill="#0B0C0C" transform="translate(428,492)"/>
<path d="M0 0 C0.99 0.33 1.98 0.66 3 1 C-0.33333333 4.33333333 -3.66666667 7.66666667 -7 11 C-5.72278474 6.00724943 -3.82669043 3.42388092 0 0 Z " fill="#090A0A" transform="translate(759,480)"/>
<path d="M0 0 C3.67033927 3.27708863 5.69281189 6.71522208 8 11 C6.25 10.9375 6.25 10.9375 4 10 C1.55272534 6.7838181 0 4.07605096 0 0 Z " fill="#090A0B" transform="translate(431,556)"/>
<path d="M0 0 C3.25597758 0.24118352 4.7276304 1.52224212 6.8125 3.875 C7.534375 4.90625 8.25625 5.9375 9 7 C8.67 7.99 8.34 8.98 8 10 C7.59007812 9.50628906 7.18015625 9.01257813 6.7578125 8.50390625 C6.21898437 7.86324219 5.68015625 7.22257812 5.125 6.5625 C4.59132813 5.92441406 4.05765625 5.28632813 3.5078125 4.62890625 C2.0777243 2.89194996 2.0777243 2.89194996 0 2 C0 1.34 0 0.68 0 0 Z " fill="#090A0A" transform="translate(781,496)"/>
<path d="M0 0 C0 0.99 0 1.98 0 3 C-6.6 2.67 -13.2 2.34 -20 2 C-20 1.67 -20 1.34 -20 1 C-17.04170322 0.832662 -14.08336635 0.66609948 -11.125 0.5 C-9.86236328 0.42845703 -9.86236328 0.42845703 -8.57421875 0.35546875 C-7.76855469 0.31035156 -6.96289062 0.26523437 -6.1328125 0.21875 C-5.38918457 0.17685547 -4.64555664 0.13496094 -3.87939453 0.09179688 C-2.58744125 0.0286929 -1.29349349 0 0 0 Z " fill="#0F0E0F" transform="translate(945,481)"/>
<path d="M0 0 C5.62541841 0.45003347 8.61487125 1.68441485 13 5 C12.01 5.495 12.01 5.495 11 6 C8.3984375 5.00390625 8.3984375 5.00390625 5.375 3.5625 C3.87066406 2.85287109 3.87066406 2.85287109 2.3359375 2.12890625 C1.56507813 1.75636719 0.79421875 1.38382812 0 1 C0 0.67 0 0.34 0 0 Z " fill="#0A0A0A" transform="translate(547,444)"/>
<path d="M0 0 C0.33 0 0.66 0 1 0 C1 2.31 1 4.62 1 7 C3.64 7 6.28 7 9 7 C9 7.33 9 7.66 9 8 C6.03 8.66 3.06 9.32 0 10 C-1.00000429 5.99998285 -0.80688405 3.94476647 0 0 Z " fill="#0F0E0F" transform="translate(601,564)"/>
<path d="M0 0 C1.62723299 0.45034123 3.25173664 0.91055354 4.875 1.375 C5.77992188 1.63023437 6.68484375 1.88546875 7.6171875 2.1484375 C10 3 10 3 12 5 C10.56163249 4.88541307 9.12429034 4.75790884 7.6875 4.625 C6.88699219 4.55539062 6.08648437 4.48578125 5.26171875 4.4140625 C3 4 3 4 0 2 C0 1.34 0 0.68 0 0 Z " fill="#0B0B0B" transform="translate(502,568)"/>
<path d="M0 0 C0.33 0.66 0.66 1.32 1 2 C3.31 2 5.62 2 8 2 C7.01 2.33 6.02 2.66 5 3 C5.33 4.32 5.66 5.64 6 7 C3.0625 6.1875 3.0625 6.1875 0 5 C-0.33 4.01 -0.66 3.02 -1 2 C-0.67 1.34 -0.34 0.68 0 0 Z " fill="#1F2530" transform="translate(373,473)"/>
<path d="M0 0 C0 4.24645065 -1.81750806 6.38524772 -4 10 C-4.66 9.67 -5.32 9.34 -6 9 C-4.68775452 5.06326356 -3.08089673 2.77280706 0 0 Z " fill="#0E0F12" transform="translate(392,543)"/>
<path d="M0 0 C0.33 0 0.66 0 1 0 C1 4.62 1 9.24 1 14 C0.34 14 -0.32 14 -1 14 C-2.13732426 10.59598052 -1.83989957 8.22543336 -1.0625 4.75 C-0.86785156 3.85796875 -0.67320312 2.9659375 -0.47265625 2.046875 C-0.31667969 1.37140625 -0.16070313 0.6959375 0 0 Z " fill="#080809" transform="translate(685,464)"/>
<path d="M0 0 C2.95929119 2.75520215 5.03681826 5.46627288 7 9 C5.1875 8.8125 5.1875 8.8125 3 8 C0.85802506 5.09303401 0 3.64478912 0 0 Z " fill="#0B0C0D" transform="translate(390,498)"/>
<path d="M0 0 C5.57142857 5.14285714 5.57142857 5.14285714 6 9 C3 8 3 8 1.3125 5.625 C0 3 0 3 0 0 Z " fill="#0B0C0E" transform="translate(381,484)"/>
<path d="M0 0 C3.67420866 0.30618405 4.78135513 0.75771784 7.3125 3.5625 C8.1478125 4.7690625 8.1478125 4.7690625 9 6 C8.34 6.66 7.68 7.32 7 8 C5.76302083 6.50260417 4.52604167 5.00520833 3.2890625 3.5078125 C2.24749008 2.28948839 1.13339903 1.13339903 0 0 Z " fill="#0F0F10" transform="translate(908,467)"/>
<path d="M0 0 C2.9375 0.8125 2.9375 0.8125 6 2 C6.33 2.99 6.66 3.98 7 5 C5.68 5.33 4.36 5.66 3 6 C2.01 4.02 1.02 2.04 0 0 Z " fill="#0C0C0D" transform="translate(415,503)"/>
<path d="M0 0 C0.99 0.33 1.98 0.66 3 1 C3.125 3.875 3.125 3.875 3 7 C2.34 7.66 1.68 8.32 1 9 C0.08941469 5.92677456 -0.08886184 3.19902639 0 0 Z " fill="#101011" transform="translate(600,443)"/>
<path d="M0 0 C0.66 0.33 1.32 0.66 2 1 C0.75 3.9375 0.75 3.9375 -1 7 C-2.32 7.33 -3.64 7.66 -5 8 C-3.35 5.36 -1.7 2.72 0 0 Z " fill="#0E1014" transform="translate(382,557)"/>
<path d="M0 0 C0.99 0.33 1.98 0.66 3 1 C-1.625 5.875 -1.625 5.875 -5 7 C-3.88820837 3.66462511 -2.52588702 2.36292656 0 0 Z " fill="#0A0A0A" transform="translate(552,544)"/>
<path d="M0 0 C2.66735273 2.48952921 4.55746343 4.63408134 6 8 C5.01 8 4.02 8 3 8 C0.89229241 5.11165997 0 3.61537605 0 0 Z " fill="#0A0B0C" transform="translate(397,509)"/>
<path d="M0 0 C4 2 4 2 5.3125 3.875 C6 6 6 6 5 10 C3.35 6.7 1.7 3.4 0 0 Z " fill="#09090A" transform="translate(402,481)"/>
<path d="M0 0 C1 3 1 3 -0.3125 5.6875 C-0.869375 6.450625 -1.42625 7.21375 -2 8 C-2.66 8 -3.32 8 -4 8 C-3.40072174 4.64404172 -2.15377564 2.62198774 0 0 Z " fill="#0A0A0A" transform="translate(756,500)"/>
<path d="M0 0 C0.33 0 0.66 0 1 0 C1 3.3 1 6.6 1 10 C0.34 10 -0.32 10 -1 10 C-2.15837626 5.94568308 -1.83691257 3.78187881 0 0 Z " fill="#050606" transform="translate(602,538)"/>
<path d="M0 0 C0.99 0 1.98 0 3 0 C4.0625 1.75 4.0625 1.75 5 4 C4.67 5.32 4.34 6.64 4 8 C2.68 5.36 1.36 2.72 0 0 Z " fill="#0A0A0A" transform="translate(409,493)"/>
<path d="M0 0 C0.99 0.33 1.98 0.66 3 1 C2.01 1.33 1.02 1.66 0 2 C0 1.34 0 0.68 0 0 Z " fill="#455C80" transform="translate(368,574)"/>
<path d="M0 0 C4 1 4 1 4 1 Z " fill="#272626" transform="translate(658,519)"/>
<path d="M0 0 C3 1 3 1 3 1 Z " fill="#368FF6" transform="translate(212,655)"/>
<path d="M0 0 C3 1 3 1 3 1 Z " fill="#3790F6" transform="translate(179,655)"/>
<path d="M0 0 C0.66 0.66 1.32 1.32 2 2 C1.34 2 0.68 2 0 2 C0 1.34 0 0.68 0 0 Z " fill="#2C2C2B" transform="translate(868,573)"/>
<path d="" fill="#2A2829" transform="translate(0,0)"/>
<path d="M0 0 C3 1 3 1 3 1 Z " fill="#272726" transform="translate(652,519)"/>
<path d="" fill="#252424" transform="translate(0,0)"/>
<path d="M0 0 C0.66 0 1.32 0 2 0 C1.67 0.66 1.34 1.32 1 2 C0.67 1.34 0.34 0.68 0 0 Z " fill="#292828" transform="translate(929,485)"/>
<path d="M0 0 C2 1 2 1 2 1 Z " fill="#368DF7" transform="translate(260,655)"/>
<path d="M0 0 C2 1 2 1 2 1 Z " fill="#358FF5" transform="translate(256,655)"/>
<path d="M0 0 C2 1 2 1 2 1 Z " fill="#368FF6" transform="translate(240,655)"/>
<path d="M0 0 C2 1 2 1 2 1 Z " fill="#358EF7" transform="translate(232,655)"/>
<path d="M0 0 C2 1 2 1 2 1 Z " fill="#358EF6" transform="translate(224,655)"/>
<path d="M0 0 C2 1 2 1 2 1 Z " fill="#368FF7" transform="translate(220,655)"/>
<path d="M0 0 C2 1 2 1 2 1 Z " fill="#348FF6" transform="translate(216,655)"/>
<path d="M0 0 C2 1 2 1 2 1 Z " fill="#368FF7" transform="translate(208,655)"/>
<path d="M0 0 C2 1 2 1 2 1 Z " fill="#358FF8" transform="translate(200,655)"/>
<path d="M0 0 C2 1 2 1 2 1 Z " fill="#368EF7" transform="translate(192,655)"/>
<path d="M0 0 C2 1 2 1 2 1 Z " fill="#368FF6" transform="translate(184,655)"/>
<path d="M0 0 C2 1 2 1 2 1 Z " fill="#368EF6" transform="translate(176,655)"/>
<path d="M0 0 C2 1 2 1 2 1 Z " fill="#378EF6" transform="translate(152,655)"/>
<path d="M0 0 C2 1 2 1 2 1 Z " fill="#378FF6" transform="translate(136,655)"/>
<path d="M0 0 C2 1 2 1 2 1 Z " fill="#378FF5" transform="translate(128,655)"/>
<path d="M0 0 C2 1 2 1 2 1 Z " fill="#3A8FF4" transform="translate(104,655)"/>
<path d="M0 0 C2 1 2 1 2 1 Z " fill="#2A2A2B" transform="translate(790,575)"/>
<path d="" fill="#282828" transform="translate(0,0)"/>
<path d="" fill="#252527" transform="translate(0,0)"/>
<path d="M0 0 C2 1 2 1 2 1 Z " fill="#272626" transform="translate(676,519)"/>
<path d="M0 0 C2 1 2 1 2 1 Z " fill="#282827" transform="translate(668,519)"/>
<path d="M0 0 C2 1 2 1 2 1 Z " fill="#272929" transform="translate(629,519)"/>
<path d="" fill="#262628" transform="translate(0,0)"/>
<path d="" fill="#292A2A" transform="translate(0,0)"/>
<path d="M0 0 C2 1 2 1 2 1 Z " fill="#3292FB" transform="translate(149,496)"/>
<path d="" fill="#252526" transform="translate(0,0)"/>
<path d="M0 0 C2 1 2 1 2 1 Z " fill="#308DFA" transform="translate(228,479)"/>
<path d="M0 0 C2 1 2 1 2 1 Z " fill="#2F8CFA" transform="translate(224,479)"/>
<path d="M0 0 C2 1 2 1 2 1 Z " fill="#2F8DFB" transform="translate(184,479)"/>
<path d="M0 0 C2 1 2 1 2 1 Z " fill="#2E8EFC" transform="translate(176,479)"/>
<path d="M0 0 C2 1 2 1 2 1 Z " fill="#2F8DFB" transform="translate(168,479)"/>
<path d="M0 0 C2 1 2 1 2 1 Z " fill="#2E8EFC" transform="translate(160,479)"/>
<path d="M0 0 C2 1 2 1 2 1 Z " fill="#308DFB" transform="translate(149,479)"/>
<path d="M0 0 C2 1 2 1 2 1 Z " fill="#2F8EFC" transform="translate(144,479)"/>
<path d="M0 0 C2 1 2 1 2 1 Z " fill="#308EFB" transform="translate(136,479)"/>
<path d="M0 0 C2 1 2 1 2 1 Z " fill="#2A292A" transform="translate(544,468)"/>
<path d="M0 0 C2 1 2 1 2 1 Z " fill="#3C8FF8" transform="translate(182,345)"/>
<path d="" fill="#3D3F40" transform="translate(0,0)"/>
<path d="" fill="#388DF2" transform="translate(0,0)"/>
<path d="" fill="#388FF5" transform="translate(0,0)"/>
<path d="" fill="#398FF4" transform="translate(0,0)"/>
<path d="" fill="#398EF4" transform="translate(0,0)"/>
<path d="" fill="#398EF6" transform="translate(0,0)"/>
<path d="" fill="#378EF7" transform="translate(0,0)"/>
<path d="" fill="#368FF5" transform="translate(0,0)"/>
<path d="" fill="#378FF7" transform="translate(0,0)"/>
<path d="" fill="#368FF5" transform="translate(0,0)"/>
<path d="" fill="#3790F6" transform="translate(0,0)"/>
<path d="" fill="#3590F8" transform="translate(0,0)"/>
<path d="" fill="#388FF5" transform="translate(0,0)"/>
<path d="" fill="#378FF8" transform="translate(0,0)"/>
<path d="" fill="#368FF7" transform="translate(0,0)"/>
<path d="" fill="#348FF6" transform="translate(0,0)"/>
<path d="" fill="#3A91F8" transform="translate(0,0)"/>
<path d="" fill="#388FF6" transform="translate(0,0)"/>
<path d="" fill="#3992F6" transform="translate(0,0)"/>
<path d="" fill="#3890F8" transform="translate(0,0)"/>
<path d="" fill="#3A8FF5" transform="translate(0,0)"/>
<path d="" fill="#3990F5" transform="translate(0,0)"/>
<path d="" fill="#378FF5" transform="translate(0,0)"/>
<path d="" fill="#388FF4" transform="translate(0,0)"/>
<path d="" fill="#3B90F3" transform="translate(0,0)"/>
<path d="" fill="#3D90F3" transform="translate(0,0)"/>
<path d="" fill="#3F90EE" transform="translate(0,0)"/>
<path d="" fill="#2B2C2C" transform="translate(0,0)"/>
<path d="" fill="#2C2E2F" transform="translate(0,0)"/>
<path d="" fill="#2D2D2C" transform="translate(0,0)"/>
<path d="" fill="#2C2D2C" transform="translate(0,0)"/>
<path d="" fill="#29292A" transform="translate(0,0)"/>
<path d="" fill="#2D2F2E" transform="translate(0,0)"/>
<path d="" fill="#2E2D2E" transform="translate(0,0)"/>
<path d="" fill="#2E2A2C" transform="translate(0,0)"/>
<path d="" fill="#2E2D2E" transform="translate(0,0)"/>
<path d="" fill="#292A2B" transform="translate(0,0)"/>
<path d="" fill="#44577A" transform="translate(0,0)"/>
<path d="" fill="#2E2D2C" transform="translate(0,0)"/>
<path d="" fill="#445C79" transform="translate(0,0)"/>
<path d="" fill="#29292B" transform="translate(0,0)"/>
<path d="" fill="#2C2B2A" transform="translate(0,0)"/>
<path d="" fill="#303134" transform="translate(0,0)"/>
<path d="" fill="#2E3233" transform="translate(0,0)"/>
<path d="" fill="#2A2B2A" transform="translate(0,0)"/>
<path d="" fill="#2F2E34" transform="translate(0,0)"/>
<path d="" fill="#2A2B2F" transform="translate(0,0)"/>
<path d="" fill="#2A2A29" transform="translate(0,0)"/>
<path d="" fill="#292729" transform="translate(0,0)"/>
<path d="" fill="#272827" transform="translate(0,0)"/>
<path d="" fill="#2C2C2E" transform="translate(0,0)"/>
<path d="" fill="#292C29" transform="translate(0,0)"/>
<path d="" fill="#28292A" transform="translate(0,0)"/>
<path d="" fill="#27282A" transform="translate(0,0)"/>
<path d="" fill="#2C2D31" transform="translate(0,0)"/>
<path d="" fill="#292826" transform="translate(0,0)"/>
<path d="" fill="#292829" transform="translate(0,0)"/>
<path d="" fill="#292626" transform="translate(0,0)"/>
<path d="" fill="#2B2B2C" transform="translate(0,0)"/>
<path d="" fill="#2B2D30" transform="translate(0,0)"/>
<path d="" fill="#292B2F" transform="translate(0,0)"/>
<path d="" fill="#2B2B2C" transform="translate(0,0)"/>
<path d="" fill="#2A292B" transform="translate(0,0)"/>
<path d="" fill="#2A2825" transform="translate(0,0)"/>
<path d="" fill="#2A2A2B" transform="translate(0,0)"/>
<path d="" fill="#2A292A" transform="translate(0,0)"/>
<path d="" fill="#292A2B" transform="translate(0,0)"/>
<path d="" fill="#272628" transform="translate(0,0)"/>
<path d="" fill="#262425" transform="translate(0,0)"/>
<path d="" fill="#282728" transform="translate(0,0)"/>
<path d="" fill="#2B2A2D" transform="translate(0,0)"/>
<path d="" fill="#282929" transform="translate(0,0)"/>
<path d="" fill="#282C2D" transform="translate(0,0)"/>
<path d="" fill="#292929" transform="translate(0,0)"/>
<path d="" fill="#262326" transform="translate(0,0)"/>
<path d="" fill="#2A2928" transform="translate(0,0)"/>
<path d="" fill="#272727" transform="translate(0,0)"/>
<path d="" fill="#262828" transform="translate(0,0)"/>
<path d="" fill="#282A2A" transform="translate(0,0)"/>
<path d="" fill="#282728" transform="translate(0,0)"/>
<path d="" fill="#292929" transform="translate(0,0)"/>
<path d="" fill="#2F8FFF" transform="translate(0,0)"/>
<path d="" fill="#328EFF" transform="translate(0,0)"/>
<path d="" fill="#308DFD" transform="translate(0,0)"/>
<path d="" fill="#328DFF" transform="translate(0,0)"/>
<path d="" fill="#3190FF" transform="translate(0,0)"/>
<path d="" fill="#2B2A2A" transform="translate(0,0)"/>
<path d="" fill="#25262A" transform="translate(0,0)"/>
<path d="" fill="#363E4B" transform="translate(0,0)"/>
<path d="" fill="#28292A" transform="translate(0,0)"/>
<path d="" fill="#252224" transform="translate(0,0)"/>
<path d="" fill="#292A2A" transform="translate(0,0)"/>
<path d="" fill="#242324" transform="translate(0,0)"/>
<path d="" fill="#2F343B" transform="translate(0,0)"/>
<path d="" fill="#28272A" transform="translate(0,0)"/>
<path d="" fill="#272829" transform="translate(0,0)"/>
<path d="" fill="#272B2A" transform="translate(0,0)"/>
<path d="" fill="#262524" transform="translate(0,0)"/>
<path d="" fill="#262527" transform="translate(0,0)"/>
<path d="" fill="#272628" transform="translate(0,0)"/>
<path d="" fill="#272726" transform="translate(0,0)"/>
<path d="" fill="#272627" transform="translate(0,0)"/>
<path d="" fill="#272928" transform="translate(0,0)"/>
<path d="" fill="#323840" transform="translate(0,0)"/>
<path d="" fill="#252727" transform="translate(0,0)"/>
<path d="" fill="#272827" transform="translate(0,0)"/>
<path d="" fill="#252424" transform="translate(0,0)"/>
<path d="" fill="#353A45" transform="translate(0,0)"/>
<path d="" fill="#272526" transform="translate(0,0)"/>
<path d="" fill="#282A2A" transform="translate(0,0)"/>
<path d="" fill="#2A2627" transform="translate(0,0)"/>
<path d="" fill="#282926" transform="translate(0,0)"/>
<path d="" fill="#262426" transform="translate(0,0)"/>
<path d="" fill="#2A2B2E" transform="translate(0,0)"/>
<path d="" fill="#2B2A2A" transform="translate(0,0)"/>
<path d="" fill="#232725" transform="translate(0,0)"/>
<path d="" fill="#2A292D" transform="translate(0,0)"/>
<path d="" fill="#3E475E" transform="translate(0,0)"/>
<path d="" fill="#292A2A" transform="translate(0,0)"/>
<path d="" fill="#292629" transform="translate(0,0)"/>
<path d="" fill="#3F4E68" transform="translate(0,0)"/>
<path d="" fill="#2B2A2B" transform="translate(0,0)"/>
<path d="" fill="#303033" transform="translate(0,0)"/>
<path d="" fill="#282827" transform="translate(0,0)"/>
<path d="" fill="#282527" transform="translate(0,0)"/>
<path d="" fill="#2A2B2A" transform="translate(0,0)"/>
<path d="" fill="#308DFD" transform="translate(0,0)"/>
<path d="" fill="#2F8EFB" transform="translate(0,0)"/>
<path d="" fill="#2E8FFA" transform="translate(0,0)"/>
<path d="" fill="#2F8EFD" transform="translate(0,0)"/>
<path d="" fill="#2F8EFB" transform="translate(0,0)"/>
<path d="" fill="#2F90FC" transform="translate(0,0)"/>
<path d="" fill="#318DF9" transform="translate(0,0)"/>
<path d="" fill="#318EFB" transform="translate(0,0)"/>
<path d="" fill="#328FFA" transform="translate(0,0)"/>
<path d="" fill="#308EFE" transform="translate(0,0)"/>
<path d="" fill="#318EFA" transform="translate(0,0)"/>
<path d="" fill="#308EFC" transform="translate(0,0)"/>
<path d="" fill="#3290FC" transform="translate(0,0)"/>
<path d="" fill="#292928" transform="translate(0,0)"/>
<path d="" fill="#2B2A29" transform="translate(0,0)"/>
<path d="" fill="#282A28" transform="translate(0,0)"/>
<path d="" fill="#292929" transform="translate(0,0)"/>
<path d="" fill="#292929" transform="translate(0,0)"/>
<path d="" fill="#262729" transform="translate(0,0)"/>
<path d="" fill="#2C2C2A" transform="translate(0,0)"/>
<path d="" fill="#2A282A" transform="translate(0,0)"/>
<path d="" fill="#2C2C2D" transform="translate(0,0)"/>
<path d="" fill="#282829" transform="translate(0,0)"/>
<path d="" fill="#252728" transform="translate(0,0)"/>
<path d="" fill="#2E2C2D" transform="translate(0,0)"/>
<path d="" fill="#2C2D2B" transform="translate(0,0)"/>
<path d="" fill="#2D2D2B" transform="translate(0,0)"/>
<path d="" fill="#495D7E" transform="translate(0,0)"/>
<path d="" fill="#2E2F30" transform="translate(0,0)"/>
<path d="" fill="#302F30" transform="translate(0,0)"/>
<path d="" fill="#2B2928" transform="translate(0,0)"/>
<path d="" fill="#29282A" transform="translate(0,0)"/>
<path d="" fill="#292B2B" transform="translate(0,0)"/>
<path d="" fill="#2B292A" transform="translate(0,0)"/>
<path d="" fill="#2B2C2B" transform="translate(0,0)"/>
<path d="" fill="#2D2A29" transform="translate(0,0)"/>
<path d="" fill="#2F3030" transform="translate(0,0)"/>
<path d="" fill="#2E2F31" transform="translate(0,0)"/>
<path d="" fill="#313233" transform="translate(0,0)"/>
<path d="" fill="#2E2F31" transform="translate(0,0)"/>
<path d="" fill="#2E2E2F" transform="translate(0,0)"/>
<path d="" fill="#2F2E2C" transform="translate(0,0)"/>
<path d="" fill="#30302E" transform="translate(0,0)"/>
<path d="" fill="#31332F" transform="translate(0,0)"/>
<path d="" fill="#333233" transform="translate(0,0)"/>
<path d="" fill="#2C2C2C" transform="translate(0,0)"/>
<path d="" fill="#3A8EF8" transform="translate(0,0)"/>
<path d="" fill="#3B8EF5" transform="translate(0,0)"/>
<path d="" fill="#3B90F6" transform="translate(0,0)"/>
<path d="" fill="#3B8FF6" transform="translate(0,0)"/>
<path d="" fill="#3B8FF7" transform="translate(0,0)"/>
<path d="" fill="#3D90F7" transform="translate(0,0)"/>
</svg>
